
<svg width="800" height="800" viewBox="0 0 800 800" fill="none" xmlns="http://www.w3.org/2000/svg">
  <g opacity="0.3">
    <path d="M200 200C200 155.82 235.82 120 280 120H400C444.18 120 480 155.82 480 200V240C480 284.18 444.18 320 400 320H280C235.82 320 200 284.18 200 240V200Z" fill="#4CAF50" fill-opacity="0.1"/>
    <path d="M520 500C520 455.82 555.82 420 600 420H720C764.18 420 800 455.82 800 500V540C800 584.18 764.18 620 720 620H600C555.82 620 520 584.18 520 540V500Z" fill="#4CAF50" fill-opacity="0.1"/>
    <path d="M0 650C0 605.82 35.82 570 80 570H200C244.18 570 280 605.82 280 650V690C280 734.18 244.18 770 200 770H80C35.82 770 0 734.18 0 690V650Z" fill="#4CAF50" fill-opacity="0.1"/>
    <path d="M350 100C383.137 100 410 73.1371 410 40C410 6.86292 383.137 -20 350 -20C316.863 -20 290 6.86292 290 40C290 73.1371 316.863 100 350 100Z" fill="#1976D2" fill-opacity="0.1"/>
    <path d="M720 280C753.137 280 780 253.137 780 220C780 186.863 753.137 160 720 160C686.863 160 660 186.863 660 220C660 253.137 686.863 280 720 280Z" fill="#1976D2" fill-opacity="0.1"/>
    <path d="M150 450C183.137 450 210 423.137 210 390C210 356.863 183.137 330 150 330C116.863 330 90 356.863 90 390C90 423.137 116.863 450 150 450Z" fill="#1976D2" fill-opacity="0.1"/>
    <path d="M480 700C513.137 700 540 673.137 540 640C540 606.863 513.137 580 480 580C446.863 580 420 606.863 420 640C420 673.137 446.863 700 480 700Z" fill="#1976D2" fill-opacity="0.1"/>
  </g>
</svg>
