
<svg width="200" height="60" viewBox="0 0 200 60" fill="none" xmlns="http://www.w3.org/2000/svg">
  <path d="M15.768 45.7271C14.196 45.7271 12.726 45.4981 11.358 45.0401C9.99 44.5681 8.8 43.9191 7.788 43.0931C6.776 42.2531 6.006 41.2831 5.478 40.1831L9.036 37.9311C9.708 39.1151 10.612 40.0571 11.748 40.7571C12.9 41.4431 14.21 41.7861 15.678 41.7861C16.634 41.7861 17.47 41.6401 18.186 41.3481C18.902 41.0561 19.454 40.6551 19.842 40.1451C20.246 39.6351 20.448 39.0341 20.448 38.3421C20.448 37.6361 20.246 37.0351 19.842 36.5391C19.454 36.0431 18.878 35.6351 18.114 35.3151C17.35 34.9811 16.4 34.6541 15.264 34.3341C13.788 33.9041 12.51 33.4651 11.43 33.0171C10.366 32.5691 9.48 31.9681 8.772 31.2141C8.08 30.4601 7.542 29.5551 7.158 28.4991C6.79 27.4431 6.606 26.2161 6.606 24.8181C6.606 23.3241 6.95 21.9981 7.638 20.8401C8.326 19.6681 9.282 18.7561 10.506 18.1041C11.746 17.4521 13.178 17.1261 14.802 17.1261C16.262 17.1261 17.626 17.3761 18.894 17.8761C20.162 18.3621 21.27 19.0191 22.218 19.8471C23.182 20.6751 23.962 21.6111 24.558 22.6551L21.18 24.9071C20.574 23.7961 19.746 22.8931 18.696 22.1981C17.662 21.5031 16.426 21.1551 14.988 21.1551C14.048 21.1551 13.222 21.3171 12.51 21.6411C11.814 21.9651 11.274 22.4131 10.89 22.9851C10.522 23.5571 10.338 24.2271 10.338 24.9951C10.338 25.6491 10.488 26.2141 10.788 26.6901C11.104 27.1521 11.556 27.5451 12.144 27.8691C12.748 28.1791 13.48 28.4541 14.34 28.6941C15.216 28.9341 16.192 29.1891 17.268 29.4591C18.668 29.8111 19.92 30.2191 21.024 30.6831C22.128 31.1331 23.056 31.6881 23.808 32.3481C24.576 32.9941 25.164 33.7751 25.572 34.6911C25.98 35.5931 26.184 36.6491 26.184 37.8591C26.184 39.4111 25.836 40.7661 25.14 41.9241C24.46 43.0681 23.47 43.9641 22.17 44.6121C20.886 45.3551 19.406 45.7271 17.73 45.7271C16.99 45.7271 16.352 45.6681 15.816 45.5501C15.28 45.4321 14.832 45.3081 14.472 45.1781C14.128 45.0341 13.864 44.8901 13.68 44.7461C13.512 44.6021 13.4 44.4851 13.344 44.3951C13.296 44.3051 13.248 44.2151 13.2 44.1251L15.768 45.7271Z" fill="#2E7D32"/>
  <path d="M37.5762 45H33.9762V21.6001H28.5762V17.8531H42.9762V21.6001H37.5762V45Z" fill="#2E7D32"/>
  <path d="M60.4217 24.0001C60.4217 24.8581 60.2657 25.6361 59.9537 26.3341C59.6577 27.0321 59.2297 27.6471 58.6697 28.1791C58.1097 28.6971 57.4377 29.1071 56.6537 29.4091L62.8937 45.0001H58.8077L53.1537 30.6001H48.8937V45.0001H45.2937V17.8531H52.5017C54.2377 17.8531 55.7137 18.1881 56.9297 18.8581C58.1617 19.5281 59.0877 20.4131 59.7077 21.5131C60.1847 22.3141 60.4217 23.1581 60.4217 24.0001ZM56.8217 24.0001C56.8217 23.0991 56.4877 22.3341 55.8197 21.7051C55.1677 21.0761 54.2617 20.7614 53.1017 20.7614H48.8937V27.4531H53.2937C54.2737 27.4531 55.0697 27.2741 55.6817 26.9161C56.3097 26.5421 56.7257 26.0611 56.9297 25.4731C56.8587 25.6201 56.8217 25.7641 56.8217 25.9051V24.0001Z" fill="#2E7D32"/>
  <path d="M69.4455 45.0001H65.8455V17.8531H76.5375C78.2735 17.8531 79.7495 18.1881 80.9655 18.8581C82.1975 19.5281 83.1235 20.4131 83.7435 21.5131C84.3635 22.6131 84.6735 23.8161 84.6735 25.1221C84.6735 26.4741 84.3155 27.7041 83.5995 28.8121C82.8995 29.9201 81.8755 30.7751 80.5275 31.3771C79.1955 31.9791 77.6215 32.2801 75.8055 32.2801H69.4455V45.0001ZM69.4455 28.5241H76.1055C77.3055 28.5241 78.2795 28.2681 79.0275 27.7561C79.7915 27.2441 80.1735 26.4831 80.1735 25.4731C80.1735 24.4751 79.7795 23.6911 78.9915 23.1211C78.2195 22.5511 77.2555 22.2661 76.0995 22.2661H69.4455V28.5241Z" fill="#2E7D32"/>
  <path d="M100.877 45.7271C98.7208 45.7271 96.8008 45.2431 95.1168 44.2751C93.4488 43.3071 92.1408 41.9631 91.1928 40.2431C90.2608 38.5091 89.7948 36.5151 89.7948 34.2601V17.8531H93.3948V34.2601C93.3948 36.6601 94.0268 38.5211 95.2908 39.8431C96.5708 41.1651 98.3908 41.8261 100.733 41.8261C101.905 41.8261 102.953 41.6131 103.877 41.1871C104.801 40.7611 105.557 40.1691 106.145 39.4111C106.733 38.6531 107.173 37.7691 107.465 36.7591C107.773 35.7491 107.927 34.6551 107.927 33.4771V17.8531H111.527V33.4771C111.527 35.9571 111.047 38.0281 110.087 39.6901C109.127 41.3521 107.779 42.6201 106.043 43.4941C104.307 44.9161 101.969 45.7271 99.0288 45.7271H100.877Z" fill="#1976D2"/>
  <path d="M127.239 45.0001H123.639V21.6001H118.239V17.8531H132.639V21.6001H127.239V45.0001Z" fill="#1976D2"/>
  <path d="M138.286 45.0001H134.686V17.8531H138.286V45.0001Z" fill="#1976D2"/>
  <path d="M150.378 45.0001L142.02 17.8531H145.908L152.85 41.7861L159.702 17.8531H163.59L155.232 45.0001H150.378Z" fill="#1976D2"/>
  <path d="M169.341 45.0001H165.741V17.8531H169.341V45.0001Z" fill="#1976D2"/>
  <path d="M177.814 45.0001H174.214V17.8531H185.67C187.406 17.8531 188.882 18.1881 190.098 18.8581C191.33 19.5281 192.256 20.4131 192.876 21.5131C193.496 22.6131 193.806 23.8161 193.806 25.1221C193.806 26.5761 193.41 27.8541 192.618 28.9561C191.826 30.0581 190.722 30.8671 189.306 31.3821C187.906 31.8841 186.302 32.1351 184.494 32.1351L177.814 32.2351V45.0001ZM177.814 28.5241H185.238C186.438 28.5241 187.412 28.2681 188.16 27.7561C188.924 27.2441 189.306 26.4831 189.306 25.4731C189.306 24.4751 188.912 23.6911 188.124 23.1211C187.352 22.5511 186.388 22.2661 185.232 22.2661H177.814V28.5241Z" fill="#1976D2"/>
  <path d="M10.2959 15.14L5.06185 4.0388C4.99425 3.90019 4.97385 3.74119 5.00385 3.58759C5.03385 3.43399 5.11225 3.29479 5.22585 3.19039C5.33945 3.08599 5.48145 3.02319 5.63065 3.01139C5.77985 2.99959 5.92865 3.03959 6.05585 3.12599L17.4159 10.402C17.5199 10.4711 17.6039 10.5671 17.6599 10.68C17.7159 10.7928 17.7414 10.9187 17.7343 11.0448C17.7271 11.1709 17.6875 11.2927 17.6196 11.398C17.5516 11.5033 17.4574 11.5881 17.3459 11.644L11.0259 14.924C10.9151 14.98 10.7912 15.0057 10.6669 14.9984C10.5426 14.9912 10.4224 14.9513 10.3189 14.883C10.2153 14.8147 10.1323 14.7202 10.0784 14.6088C10.0246 14.4974 10.0016 14.3736 10.0119 14.25" fill="#4CAF50"/>
</svg>
